<?xml version="1.0" encoding="UTF-8"?>
<svg xmlns="http://www.w3.org/2000/svg" viewBox="0 0 1200 870" width="1200" height="870">
  <defs>
    <filter id="shadow" x="-20%" y="-20%" width="140%" height="140%">
      <feDropShadow dx="0" dy="2" stdDeviation="3" flood-color="#000" flood-opacity="0.3"/>
    </filter>
  </defs>
  <rect width="100%" height="100%" fill="#0b0f19"/>
  <text x="600" y="36" text-anchor="middle" fill="#94a3b8" font-size="16" font-family="ui-monospace, 'SF Mono', Menlo, monospace" letter-spacing="0.12em">HERMES / HY MEMORY ARCHITECTURE</text>
  <line x1="150" y1="98" x2="350" y2="62" stroke="#475569" stroke-width="1" stroke-opacity="0.6"/>
  <circle cx="350" cy="62" r="2" fill="#475569"/>
  <line x1="150" y1="98" x2="550" y2="62" stroke="#475569" stroke-width="1" stroke-opacity="0.6"/>
  <circle cx="550" cy="62" r="2" fill="#475569"/>
  <line x1="150" y1="98" x2="750" y2="62" stroke="#475569" stroke-width="1" stroke-opacity="0.6"/>
  <circle cx="750" cy="62" r="2" fill="#475569"/>
  <line x1="350" y1="98" x2="450" y2="172" stroke="#475569" stroke-width="1" stroke-opacity="0.6"/>
  <circle cx="450" cy="172" r="2" fill="#475569"/>
  <line x1="550" y1="98" x2="450" y2="172" stroke="#475569" stroke-width="1" stroke-opacity="0.6"/>
  <circle cx="450" cy="172" r="2" fill="#475569"/>
  <line x1="750" y1="98" x2="450" y2="172" stroke="#475569" stroke-width="1" stroke-opacity="0.6"/>
  <circle cx="450" cy="172" r="2" fill="#475569"/>
  <line x1="950" y1="98" x2="450" y2="172" stroke="#475569" stroke-width="1" stroke-opacity="0.6"/>
  <circle cx="450" cy="172" r="2" fill="#475569"/>
  <line x1="450" y1="208" x2="250" y2="292" stroke="#475569" stroke-width="1" stroke-opacity="0.6"/>
  <circle cx="250" cy="292" r="2" fill="#475569"/>
  <line x1="750" y1="208" x2="250" y2="292" stroke="#475569" stroke-width="1" stroke-opacity="0.6"/>
  <circle cx="250" cy="292" r="2" fill="#475569"/>
  <line x1="1050" y1="208" x2="1050" y2="292" stroke="#475569" stroke-width="1" stroke-opacity="0.6"/>
  <circle cx="1050" cy="292" r="2" fill="#475569"/>
  <line x1="250" y1="328" x2="450" y2="292" stroke="#475569" stroke-width="1" stroke-opacity="0.6"/>
  <circle cx="450" cy="292" r="2" fill="#475569"/>
  <line x1="450" y1="328" x2="650" y2="292" stroke="#475569" stroke-width="1" stroke-opacity="0.6"/>
  <circle cx="650" cy="292" r="2" fill="#475569"/>
  <line x1="650" y1="328" x2="850" y2="292" stroke="#475569" stroke-width="1" stroke-opacity="0.6"/>
  <circle cx="850" cy="292" r="2" fill="#475569"/>
  <line x1="850" y1="328" x2="1050" y2="292" stroke="#475569" stroke-width="1" stroke-opacity="0.6"/>
  <circle cx="1050" cy="292" r="2" fill="#475569"/>
  <line x1="850" y1="328" x2="650" y2="412" stroke="#475569" stroke-width="1" stroke-opacity="0.6"/>
  <circle cx="650" cy="412" r="2" fill="#475569"/>
  <line x1="650" y1="448" x2="850" y2="412" stroke="#475569" stroke-width="1" stroke-opacity="0.6"/>
  <circle cx="850" cy="412" r="2" fill="#475569"/>
  <line x1="850" y1="448" x2="650" y2="532" stroke="#475569" stroke-width="1" stroke-opacity="0.6"/>
  <circle cx="650" cy="532" r="2" fill="#475569"/>
  <line x1="850" y1="328" x2="450" y2="412" stroke="#475569" stroke-width="1" stroke-opacity="0.6"/>
  <circle cx="450" cy="412" r="2" fill="#475569"/>
  <line x1="450" y1="448" x2="1050" y2="532" stroke="#475569" stroke-width="1" stroke-opacity="0.6"/>
  <circle cx="1050" cy="532" r="2" fill="#475569"/>
  <line x1="250" y1="448" x2="850" y2="292" stroke="#475569" stroke-width="1" stroke-opacity="0.6"/>
  <circle cx="850" cy="292" r="2" fill="#475569"/>
  <line x1="1050" y1="448" x2="850" y2="292" stroke="#475569" stroke-width="1" stroke-opacity="0.6"/>
  <circle cx="850" cy="292" r="2" fill="#475569"/>
  <line x1="250" y1="568" x2="450" y2="532" stroke="#475569" stroke-width="1" stroke-opacity="0.6"/>
  <circle cx="450" cy="532" r="2" fill="#475569"/>
  <line x1="450" y1="568" x2="650" y2="532" stroke="#475569" stroke-width="1" stroke-opacity="0.6"/>
  <circle cx="650" cy="532" r="2" fill="#475569"/>
  <line x1="650" y1="568" x2="850" y2="532" stroke="#475569" stroke-width="1" stroke-opacity="0.6"/>
  <circle cx="850" cy="532" r="2" fill="#475569"/>
  <line x1="850" y1="568" x2="1050" y2="532" stroke="#475569" stroke-width="1" stroke-opacity="0.6"/>
  <circle cx="1050" cy="532" r="2" fill="#475569"/>
  <line x1="650" y1="568" x2="250" y2="652" stroke="#475569" stroke-width="1" stroke-opacity="0.6"/>
  <circle cx="250" cy="652" r="2" fill="#475569"/>
  <line x1="250" y1="688" x2="450" y2="652" stroke="#475569" stroke-width="1" stroke-opacity="0.6"/>
  <circle cx="450" cy="652" r="2" fill="#475569"/>
  <line x1="250" y1="688" x2="650" y2="652" stroke="#475569" stroke-width="1" stroke-opacity="0.6"/>
  <circle cx="650" cy="652" r="2" fill="#475569"/>
  <line x1="250" y1="688" x2="850" y2="652" stroke="#475569" stroke-width="1" stroke-opacity="0.6"/>
  <circle cx="850" cy="652" r="2" fill="#475569"/>
  <line x1="250" y1="688" x2="1050" y2="652" stroke="#475569" stroke-width="1" stroke-opacity="0.6"/>
  <circle cx="1050" cy="652" r="2" fill="#475569"/>
  <line x1="450" y1="688" x2="450" y2="772" stroke="#475569" stroke-width="1" stroke-opacity="0.6"/>
  <circle cx="450" cy="772" r="2" fill="#475569"/>
  <line x1="650" y1="688" x2="650" y2="772" stroke="#475569" stroke-width="1" stroke-opacity="0.6"/>
  <circle cx="650" cy="772" r="2" fill="#475569"/>
  <line x1="850" y1="688" x2="850" y2="772" stroke="#475569" stroke-width="1" stroke-opacity="0.6"/>
  <circle cx="850" cy="772" r="2" fill="#475569"/>
  <line x1="1050" y1="688" x2="1050" y2="772" stroke="#475569" stroke-width="1" stroke-opacity="0.6"/>
  <circle cx="1050" cy="772" r="2" fill="#475569"/>
  <line x1="250" y1="808" x2="650" y2="532" stroke="#475569" stroke-width="1" stroke-opacity="0.6"/>
  <circle cx="650" cy="532" r="2" fill="#475569"/>
  <g transform="translate(150,80)">
    <rect x="-70.0" y="-18.0" width="140" height="36" rx="6" fill="#1e293b" stroke="#64748b" stroke-width="1.5"/>
    <text x="0" y="4" text-anchor="middle" fill="#f1f5f9" font-size="12" font-family="system-ui, -apple-system, 'Segoe UI', sans-serif" font-weight="500">用户</text>
  </g>
  <g transform="translate(350,80)">
    <rect x="-70.0" y="-18.0" width="140" height="36" rx="6" fill="#1e293b" stroke="#64748b" stroke-width="1.5"/>
    <text x="0" y="4" text-anchor="middle" fill="#f1f5f9" font-size="12" font-family="system-ui, -apple-system, 'Segoe UI', sans-serif" font-weight="500">Hermes CLI</text>
  </g>
  <g transform="translate(550,80)">
    <rect x="-70.0" y="-18.0" width="140" height="36" rx="6" fill="#1e293b" stroke="#64748b" stroke-width="1.5"/>
    <text x="0" y="4" text-anchor="middle" fill="#f1f5f9" font-size="12" font-family="system-ui, -apple-system, 'Segoe UI', sans-serif" font-weight="500">Desktop</text>
  </g>
  <g transform="translate(750,80)">
    <rect x="-70.0" y="-18.0" width="140" height="36" rx="6" fill="#1e293b" stroke="#64748b" stroke-width="1.5"/>
    <text x="0" y="4" text-anchor="middle" fill="#f1f5f9" font-size="12" font-family="system-ui, -apple-system, 'Segoe UI', sans-serif" font-weight="500">Messaging Platforms</text>
  </g>
  <g transform="translate(950,80)">
    <rect x="-70.0" y="-18.0" width="140" height="36" rx="6" fill="#1e293b" stroke="#64748b" stroke-width="1.5"/>
    <text x="0" y="4" text-anchor="middle" fill="#f1f5f9" font-size="12" font-family="system-ui, -apple-system, 'Segoe UI', sans-serif" font-weight="500">Dashboard</text>
  </g>
  <g transform="translate(450,190)">
    <rect x="-70.0" y="-18.0" width="140" height="36" rx="6" fill="#172554" stroke="#3b82f6" stroke-width="1.5"/>
    <text x="0" y="4" text-anchor="middle" fill="#f1f5f9" font-size="12" font-family="system-ui, -apple-system, 'Segoe UI', sans-serif" font-weight="500">Gateway</text>
  </g>
  <g transform="translate(750,190)">
    <rect x="-70.0" y="-18.0" width="140" height="36" rx="6" fill="#172554" stroke="#3b82f6" stroke-width="1.5"/>
    <text x="0" y="4" text-anchor="middle" fill="#f1f5f9" font-size="12" font-family="system-ui, -apple-system, 'Segoe UI', sans-serif" font-weight="500">Config & State</text>
  </g>
  <g transform="translate(1050,190)">
    <rect x="-70.0" y="-18.0" width="140" height="36" rx="6" fill="#172554" stroke="#3b82f6" stroke-width="1.5"/>
    <text x="0" y="4" text-anchor="middle" fill="#f1f5f9" font-size="12" font-family="system-ui, -apple-system, 'Segoe UI', sans-serif" font-weight="500">Provider APIs</text>
  </g>
  <g transform="translate(250,310)">
    <rect x="-70.0" y="-18.0" width="140" height="36" rx="6" fill="#3f1906" stroke="#f97316" stroke-width="1.5"/>
    <text x="0" y="4" text-anchor="middle" fill="#f1f5f9" font-size="12" font-family="system-ui, -apple-system, 'Segoe UI', sans-serif" font-weight="500">Turn 前奏</text>
  </g>
  <g transform="translate(450,310)">
    <rect x="-70.0" y="-18.0" width="140" height="36" rx="6" fill="#3f1906" stroke="#f97316" stroke-width="1.5"/>
    <text x="0" y="4" text-anchor="middle" fill="#f1f5f9" font-size="12" font-family="system-ui, -apple-system, 'Segoe UI', sans-serif" font-weight="500">系统提示</text>
  </g>
  <g transform="translate(650,310)">
    <rect x="-70.0" y="-18.0" width="140" height="36" rx="6" fill="#3f1906" stroke="#f97316" stroke-width="1.5"/>
    <text x="0" y="4" text-anchor="middle" fill="#f1f5f9" font-size="12" font-family="system-ui, -apple-system, 'Segoe UI', sans-serif" font-weight="500">消息构建</text>
  </g>
  <g transform="translate(850,310)">
    <rect x="-70.0" y="-18.0" width="140" height="36" rx="6" fill="#3f1906" stroke="#f97316" stroke-width="1.5"/>
    <text x="0" y="4" text-anchor="middle" fill="#f1f5f9" font-size="12" font-family="system-ui, -apple-system, 'Segoe UI', sans-serif" font-weight="500">主循环</text>
  </g>
  <g transform="translate(1050,310)">
    <rect x="-70.0" y="-18.0" width="140" height="36" rx="6" fill="#3f1906" stroke="#f97316" stroke-width="1.5"/>
    <text x="0" y="4" text-anchor="middle" fill="#f1f5f9" font-size="12" font-family="system-ui, -apple-system, 'Segoe UI', sans-serif" font-weight="500">LLM API</text>
  </g>
  <g transform="translate(250,430)">
    <rect x="-70.0" y="-18.0" width="140" height="36" rx="6" fill="#3f1906" stroke="#f97316" stroke-width="1.5"/>
    <text x="0" y="4" text-anchor="middle" fill="#f1f5f9" font-size="12" font-family="system-ui, -apple-system, 'Segoe UI', sans-serif" font-weight="500">背景 review</text>
  </g>
  <g transform="translate(450,430)">
    <rect x="-70.0" y="-18.0" width="140" height="36" rx="6" fill="#3f1906" stroke="#f97316" stroke-width="1.5"/>
    <text x="0" y="4" text-anchor="middle" fill="#f1f5f9" font-size="12" font-family="system-ui, -apple-system, 'Segoe UI', sans-serif" font-weight="500">上下文压缩</text>
  </g>
  <g transform="translate(650,430)">
    <rect x="-70.0" y="-18.0" width="140" height="36" rx="6" fill="#3f1906" stroke="#f97316" stroke-width="1.5"/>
    <text x="0" y="4" text-anchor="middle" fill="#f1f5f9" font-size="12" font-family="system-ui, -apple-system, 'Segoe UI', sans-serif" font-weight="500">工具执行</text>
  </g>
  <g transform="translate(850,430)">
    <rect x="-70.0" y="-18.0" width="140" height="36" rx="6" fill="#3f1906" stroke="#f97316" stroke-width="1.5"/>
    <text x="0" y="4" text-anchor="middle" fill="#f1f5f9" font-size="12" font-family="system-ui, -apple-system, 'Segoe UI', sans-serif" font-weight="500">memory tool</text>
  </g>
  <g transform="translate(1050,430)">
    <rect x="-70.0" y="-18.0" width="140" height="36" rx="6" fill="#3f1906" stroke="#f97316" stroke-width="1.5"/>
    <text x="0" y="4" text-anchor="middle" fill="#f1f5f9" font-size="12" font-family="system-ui, -apple-system, 'Segoe UI', sans-serif" font-weight="500">Turn 收尾</text>
  </g>
  <g transform="translate(250,550)">
    <rect x="-70.0" y="-18.0" width="140" height="36" rx="6" fill="#064e3b" stroke="#10b981" stroke-width="1.5"/>
    <text x="0" y="4" text-anchor="middle" fill="#f1f5f9" font-size="12" font-family="system-ui, -apple-system, 'Segoe UI', sans-serif" font-weight="500">MemoryManager</text>
  </g>
  <g transform="translate(450,550)">
    <rect x="-70.0" y="-18.0" width="140" height="36" rx="6" fill="#064e3b" stroke="#10b981" stroke-width="1.5"/>
    <text x="0" y="4" text-anchor="middle" fill="#f1f5f9" font-size="12" font-family="system-ui, -apple-system, 'Segoe UI', sans-serif" font-weight="500">MemoryProvider</text>
  </g>
  <g transform="translate(650,550)">
    <rect x="-70.0" y="-18.0" width="140" height="36" rx="6" fill="#064e3b" stroke="#10b981" stroke-width="1.5"/>
    <text x="0" y="4" text-anchor="middle" fill="#f1f5f9" font-size="12" font-family="system-ui, -apple-system, 'Segoe UI', sans-serif" font-weight="500">MemoryStore</text>
  </g>
  <g transform="translate(850,550)">
    <rect x="-70.0" y="-18.0" width="140" height="36" rx="6" fill="#064e3b" stroke="#10b981" stroke-width="1.5"/>
    <text x="0" y="4" text-anchor="middle" fill="#f1f5f9" font-size="12" font-family="system-ui, -apple-system, 'Segoe UI', sans-serif" font-weight="500">ContextEngine</text>
  </g>
  <g transform="translate(1050,550)">
    <rect x="-70.0" y="-18.0" width="140" height="36" rx="6" fill="#064e3b" stroke="#10b981" stroke-width="1.5"/>
    <text x="0" y="4" text-anchor="middle" fill="#f1f5f9" font-size="12" font-family="system-ui, -apple-system, 'Segoe UI', sans-serif" font-weight="500">ContextCompressor</text>
  </g>
  <g transform="translate(250,670)">
    <rect x="-70.0" y="-18.0" width="140" height="36" rx="6" fill="#4c1d95" stroke="#a855f7" stroke-width="1.5"/>
    <text x="0" y="4" text-anchor="middle" fill="#f1f5f9" font-size="12" font-family="system-ui, -apple-system, 'Segoe UI', sans-serif" font-weight="500">HY Memory</text>
  </g>
  <g transform="translate(450,670)">
    <rect x="-70.0" y="-18.0" width="140" height="36" rx="6" fill="#4c1d95" stroke="#a855f7" stroke-width="1.5"/>
    <text x="0" y="4" text-anchor="middle" fill="#f1f5f9" font-size="12" font-family="system-ui, -apple-system, 'Segoe UI', sans-serif" font-weight="500">S1 Writer</text>
  </g>
  <g transform="translate(650,670)">
    <rect x="-70.0" y="-18.0" width="140" height="36" rx="6" fill="#4c1d95" stroke="#a855f7" stroke-width="1.5"/>
    <text x="0" y="4" text-anchor="middle" fill="#f1f5f9" font-size="12" font-family="system-ui, -apple-system, 'Segoe UI', sans-serif" font-weight="500">MemAgent</text>
  </g>
  <g transform="translate(850,670)">
    <rect x="-70.0" y="-18.0" width="140" height="36" rx="6" fill="#4c1d95" stroke="#a855f7" stroke-width="1.5"/>
    <text x="0" y="4" text-anchor="middle" fill="#f1f5f9" font-size="12" font-family="system-ui, -apple-system, 'Segoe UI', sans-serif" font-weight="500">Reconciler</text>
  </g>
  <g transform="translate(1050,670)">
    <rect x="-70.0" y="-18.0" width="140" height="36" rx="6" fill="#4c1d95" stroke="#a855f7" stroke-width="1.5"/>
    <text x="0" y="4" text-anchor="middle" fill="#f1f5f9" font-size="12" font-family="system-ui, -apple-system, 'Segoe UI', sans-serif" font-weight="500">System 2</text>
  </g>
  <g transform="translate(250,790)">
    <rect x="-70.0" y="-18.0" width="140" height="36" rx="6" fill="#0f172a" stroke="#475569" stroke-width="1.5"/>
    <text x="0" y="4" text-anchor="middle" fill="#f1f5f9" font-size="12" font-family="system-ui, -apple-system, 'Segoe UI', sans-serif" font-weight="500">记忆文件</text>
  </g>
  <g transform="translate(450,790)">
    <rect x="-70.0" y="-18.0" width="140" height="36" rx="6" fill="#0f172a" stroke="#475569" stroke-width="1.5"/>
    <text x="0" y="4" text-anchor="middle" fill="#f1f5f9" font-size="12" font-family="system-ui, -apple-system, 'Segoe UI', sans-serif" font-weight="500">Vector DB</text>
  </g>
  <g transform="translate(650,790)">
    <rect x="-70.0" y="-18.0" width="140" height="36" rx="6" fill="#0f172a" stroke="#475569" stroke-width="1.5"/>
    <text x="0" y="4" text-anchor="middle" fill="#f1f5f9" font-size="12" font-family="system-ui, -apple-system, 'Segoe UI', sans-serif" font-weight="500">Graph DB</text>
  </g>
  <g transform="translate(850,790)">
    <rect x="-70.0" y="-18.0" width="140" height="36" rx="6" fill="#0f172a" stroke="#475569" stroke-width="1.5"/>
    <text x="0" y="4" text-anchor="middle" fill="#f1f5f9" font-size="12" font-family="system-ui, -apple-system, 'Segoe UI', sans-serif" font-weight="500">cache.db</text>
  </g>
  <g transform="translate(1050,790)">
    <rect x="-70.0" y="-18.0" width="140" height="36" rx="6" fill="#0f172a" stroke="#475569" stroke-width="1.5"/>
    <text x="0" y="4" text-anchor="middle" fill="#f1f5f9" font-size="12" font-family="system-ui, -apple-system, 'Segoe UI', sans-serif" font-weight="500">SQLite Session</text>
  </g>
</svg>
